<?xml version="1.0" encoding="utf-8"?>
<!-- Generator: Adobe Illustrator 27.3.1, SVG Export Plug-In . SVG Version: 6.00 Build 0)  -->
<svg version="1.1" id="Layer_1" xmlns="http://www.w3.org/2000/svg" xmlns:xlink="http://www.w3.org/1999/xlink" x="0px" y="0px"
	 viewBox="0 0 263.35 193.28" style="enable-background:new 0 0 263.35 193.28;" xml:space="preserve">
<style type="text/css">
	.st0{clip-path:url(#SVGID_00000076594451866967619950000000306256566717570229_);fill:none;stroke:#8A2BE2;stroke-width:20;}
	.st1{clip-path:url(#SVGID_00000137116074079135008450000016605602838601662371_);fill:#8A2BE2;}
	.st2{clip-path:url(#SVGID_00000137116074079135008450000016605602838601662371_);fill:none;stroke:#8A2BE2;}
</style>
<g>
	<defs>
		<rect id="SVGID_1_" y="13.18" width="263.35" height="166.91"/>
	</defs>
	<clipPath id="SVGID_00000131329856812864572270000010168133282543344558_">
		<use xlink:href="#SVGID_1_"  style="overflow:visible;"/>
	</clipPath>
	
		<path style="clip-path:url(#SVGID_00000131329856812864572270000010168133282543344558_);fill:none;stroke:#8A2BE2;stroke-width:20;" d="
		M129.46,23.51c-29.61,0-54.86,19.91-64.54,47.82c-2.59-0.47-5.25-0.74-7.96-0.74c-25.76,0-46.63,22.21-46.63,49.6
		c0,27.39,20.87,49.58,46.63,49.58c0.49,0,0.98-0.02,1.46-0.04l70.25,0.02c0.27,0,0.53,0.02,0.8,0.02c0.26,0,0.52-0.02,0.78-0.02
		l83.92,0.02c21.47,0,38.87-18.5,38.87-41.34c0-22.84-17.4-41.35-38.87-41.35c-5.77,0-11.25,1.36-16.17,3.75
		C195.2,53.16,165.6,23.51,129.46,23.51z"/>
</g>
<g>
	<defs>
		<rect id="SVGID_00000130607703033255640610000001418177623329296560_" x="89.93" y="64.57" width="83.49" height="83.51"/>
	</defs>
	<clipPath id="SVGID_00000170985456357208205240000000485807061286268591_">
		<use xlink:href="#SVGID_00000130607703033255640610000001418177623329296560_"  style="overflow:visible;"/>
	</clipPath>
	<path style="clip-path:url(#SVGID_00000170985456357208205240000000485807061286268591_);fill:#8A2BE2;" d="M131.67,88.06
		c10.09,0,18.27,8.18,18.27,18.27c0,10.09-8.18,18.27-18.27,18.27c-10.09,0-18.27-8.18-18.27-18.27
		C113.41,96.24,121.59,88.06,131.67,88.06z M139.31,66.65c-0.39-0.05-0.65,0.13-0.92,0.63c-1.09,2.02-2.28,4-3.42,6
		c-0.42,0.74-0.9,1.1-1.87,1c-1.7-0.17-3.44-0.15-5.14,0.14c-0.77,0.13-1.2-0.06-1.62-0.72c-1.29-2.01-2.67-3.96-3.96-5.97
		c-0.36-0.56-0.65-0.64-1.25-0.36c-3.91,1.8-7.83,3.59-11.77,5.33c-0.72,0.32-0.72,0.65-0.53,1.3c0.64,2.25,1.19,4.54,1.84,6.79
		c0.21,0.73,0.12,1.22-0.49,1.72c-1.37,1.12-2.6,2.4-3.62,3.84c-0.54,0.76-1.11,0.83-1.88,0.67c-2.25-0.46-4.52-0.87-6.76-1.38
		c-0.72-0.16-1.03-0.01-1.28,0.67c-1.48,4-2.98,7.98-4.5,11.96c-0.26,0.67-0.15,1,0.51,1.36c2.02,1.09,3.99,2.28,5.99,3.42
		c0.75,0.42,1.09,0.9,0.98,1.88c-0.18,1.7-0.09,3.44,0.19,5.14c0.13,0.77-0.1,1.2-0.75,1.62c-2.01,1.29-3.97,2.67-5.98,3.96
		c-0.57,0.37-0.61,0.66-0.34,1.25c1.8,3.91,3.59,7.82,5.32,11.76c0.32,0.72,0.65,0.72,1.3,0.53c2.25-0.64,4.53-1.22,6.8-1.82
		c0.34-0.09,0.68-0.14,1.03-0.21c0.17,0.2,0.31,0.37,0.45,0.53c1.2,1.35,2.51,2.62,3.97,3.67c0.79,0.57,0.93,1.15,0.76,1.99
		c-0.47,2.25-0.87,4.51-1.38,6.75c-0.16,0.72-0.02,1.04,0.67,1.29c4,1.48,7.98,2.98,11.96,4.5c0.67,0.26,1,0.16,1.36-0.5
		c1.09-2.02,2.28-3.99,3.42-5.99c0.42-0.73,0.88-1.12,1.87-1.02c1.66,0.18,3.37,0.2,5.01-0.13c1-0.2,1.43,0.22,1.9,0.93
		c1.26,1.93,2.58,3.81,3.83,5.75c0.36,0.56,0.64,0.64,1.25,0.36c3.91-1.81,7.82-3.59,11.76-5.32c0.71-0.31,0.73-0.64,0.55-1.3
		c-0.65-2.25-1.19-4.53-1.84-6.79c-0.21-0.73-0.13-1.21,0.48-1.72c1.37-1.12,2.6-2.4,3.63-3.83c0.54-0.75,1.09-0.84,1.87-0.68
		c2.25,0.47,4.52,0.87,6.76,1.38c0.72,0.16,1.04,0.02,1.29-0.66c1.48-4,2.98-7.98,4.5-11.96c0.25-0.66,0.16-1-0.5-1.36
		c-2.02-1.09-3.99-2.27-5.99-3.41c-0.74-0.42-1.09-0.89-0.99-1.88c0.19-1.7,0.09-3.44-0.19-5.14c-0.13-0.77,0.1-1.2,0.75-1.62
		c2.01-1.29,3.96-2.67,5.97-3.96c0.57-0.36,0.63-0.65,0.35-1.25c-1.8-3.91-3.59-7.82-5.32-11.76c-0.32-0.72-0.65-0.72-1.3-0.53
		c-2.3,0.65-4.62,1.22-6.93,1.87c-0.63,0.18-1.05,0.08-1.48-0.45c-1.12-1.38-2.44-2.56-3.86-3.6c-0.78-0.57-0.93-1.14-0.76-1.99
		c0.47-2.25,0.87-4.51,1.38-6.75c0.16-0.72,0.01-1.04-0.67-1.29c-4-1.48-7.98-2.98-11.96-4.5
		C139.58,66.71,139.44,66.66,139.31,66.65z"/>
	<path style="clip-path:url(#SVGID_00000170985456357208205240000000485807061286268591_);fill:none;stroke:#8A2BE2;" d="
		M131.67,88.06c10.09,0,18.27,8.18,18.27,18.27c0,10.09-8.18,18.27-18.27,18.27c-10.09,0-18.27-8.18-18.27-18.27
		C113.41,96.24,121.59,88.06,131.67,88.06z M139.31,66.65c-0.39-0.05-0.65,0.13-0.92,0.63c-1.09,2.02-2.28,4-3.42,6
		c-0.42,0.74-0.9,1.1-1.87,1c-1.7-0.17-3.44-0.15-5.14,0.14c-0.77,0.13-1.2-0.06-1.62-0.72c-1.29-2.01-2.67-3.96-3.96-5.97
		c-0.36-0.56-0.65-0.64-1.25-0.36c-3.91,1.8-7.83,3.59-11.77,5.33c-0.72,0.32-0.72,0.65-0.53,1.3c0.64,2.25,1.19,4.54,1.84,6.79
		c0.21,0.73,0.12,1.22-0.49,1.72c-1.37,1.12-2.6,2.4-3.62,3.84c-0.54,0.76-1.11,0.83-1.88,0.67c-2.25-0.46-4.52-0.87-6.76-1.38
		c-0.72-0.16-1.03-0.01-1.28,0.67c-1.48,4-2.98,7.98-4.5,11.96c-0.26,0.67-0.15,1,0.51,1.36c2.02,1.09,3.99,2.28,5.99,3.42
		c0.75,0.42,1.09,0.9,0.98,1.88c-0.18,1.7-0.09,3.44,0.19,5.14c0.13,0.77-0.1,1.2-0.75,1.62c-2.01,1.29-3.97,2.67-5.98,3.96
		c-0.57,0.37-0.61,0.66-0.34,1.25c1.8,3.91,3.59,7.82,5.32,11.76c0.32,0.72,0.65,0.72,1.3,0.53c2.25-0.64,4.53-1.22,6.8-1.82
		c0.34-0.09,0.68-0.14,1.03-0.21c0.17,0.2,0.31,0.37,0.45,0.53c1.2,1.35,2.51,2.62,3.97,3.67c0.79,0.57,0.93,1.15,0.76,1.99
		c-0.47,2.25-0.87,4.51-1.38,6.75c-0.16,0.72-0.02,1.04,0.67,1.29c4,1.48,7.98,2.98,11.96,4.5c0.67,0.26,1,0.16,1.36-0.5
		c1.09-2.02,2.28-3.99,3.42-5.99c0.42-0.73,0.88-1.12,1.87-1.02c1.66,0.18,3.37,0.2,5.01-0.13c1-0.2,1.43,0.22,1.9,0.93
		c1.26,1.93,2.58,3.81,3.83,5.75c0.36,0.56,0.64,0.64,1.25,0.36c3.91-1.81,7.82-3.59,11.76-5.32c0.71-0.31,0.73-0.64,0.55-1.3
		c-0.65-2.25-1.19-4.53-1.84-6.79c-0.21-0.73-0.13-1.21,0.48-1.72c1.37-1.12,2.6-2.4,3.63-3.83c0.54-0.75,1.09-0.84,1.87-0.68
		c2.25,0.47,4.52,0.87,6.76,1.38c0.72,0.16,1.04,0.02,1.29-0.66c1.48-4,2.98-7.98,4.5-11.96c0.25-0.66,0.16-1-0.5-1.36
		c-2.02-1.09-3.99-2.27-5.99-3.41c-0.74-0.42-1.09-0.89-0.99-1.88c0.19-1.7,0.09-3.44-0.19-5.14c-0.13-0.77,0.1-1.2,0.75-1.62
		c2.01-1.29,3.96-2.67,5.97-3.96c0.57-0.36,0.63-0.65,0.35-1.25c-1.8-3.91-3.59-7.82-5.32-11.76c-0.32-0.72-0.65-0.72-1.3-0.53
		c-2.3,0.65-4.62,1.22-6.93,1.87c-0.63,0.18-1.05,0.08-1.48-0.45c-1.12-1.38-2.44-2.56-3.86-3.6c-0.78-0.57-0.93-1.14-0.76-1.99
		c0.47-2.25,0.87-4.51,1.38-6.75c0.16-0.72,0.01-1.04-0.67-1.29c-4-1.48-7.98-2.98-11.96-4.5
		C139.58,66.71,139.44,66.66,139.31,66.65z"/>
</g>
</svg>
